<svg width="1440" height="469" viewBox="0 0 1440 469" fill="none" xmlns="http://www.w3.org/2000/svg">
<g clip-path="url(#clip0_31_86)">
<path d="M0 355.539L206 310.768L411 309.714L617 232.812L823 300.233L1029 216.484L1234 321.302L1440 277.057V-0.526459H1234H1029H823H617H411H206H0V355.539Z" fill="#2737CB"/>
<path d="M0 232.285L206 282.324L411 237.553L617 271.263L823 241.766L1029 225.438L1234 190.147L1440 181.72V-0.526642H1234H1029H823H617H411H206H0V232.285Z" fill="#2032AB"/>
<path d="M0 200.682L206 231.232L411 177.506L617 181.72L823 191.201L1029 143.269L1234 127.467L1440 190.674V-0.526703H1234H1029H823H617H411H206H0V200.682Z" fill="#1D2D8B"/>
<path d="M0 161.704L206 103.238L411 110.085L617 139.055L823 160.124L1029 139.582L1234 155.383L1440 133.261V-0.526947H1234H1029H823H617H411H206H0V161.704Z" fill="#1C276C"/>
<path d="M0 80.5885L206 66.8937L411 67.4204L617 56.886L823 38.4506L1029 74.2679L1234 41.0842L1440 96.917V-0.526978H1234H1029H823H617H411H206H0V80.5885Z" fill="#1B204E"/>
<path d="M0 453.307L288 412.5L576 469L864 383.404L1152 469L1440 437.615V250.729L1152 226.477L874.5 194.829L576 312.073L288 158L0 226.477V453.307Z" fill="#2737CB" fill-opacity="0.15"/>
</g>
<defs>
<clipPath id="clip0_31_86">
<rect width="1440" height="469" fill="white" transform="matrix(1 0 0 -1 0 469)"/>
</clipPath>
</defs>
</svg>
