<svg width="1440" height="337" viewBox="0 0 1440 337" fill="none" xmlns="http://www.w3.org/2000/svg">
<g clip-path="url(#clip0_31_80)">
<path d="M0 -18.5388L206 26.2327L411 27.2862L617 104.188L823 36.7672L1029 120.516L1234 15.6983L1440 59.9431V337.527H1234H1029H823H617H411H206H0V-18.5388Z" fill="#2737CB"/>
<path d="M0 104.715L206 54.6758L411 99.4473L617 65.737L823 95.2335L1029 111.562L1234 146.853L1440 155.28V337.527H1234H1029H823H617H411H206H0V104.715Z" fill="#2032AB"/>
<path d="M0 136.318L206 105.768L411 159.494L617 155.28L823 145.799L1029 193.731L1234 209.533L1440 146.326V337.527H1234H1029H823H617H411H206H0V136.318Z" fill="#1D2D8B"/>
<path d="M0 175.296L206 233.762L411 226.915L617 197.945L823 176.876L1029 197.418L1234 181.616L1440 203.739V337.527H1234H1029H823H617H411H206H0V175.296Z" fill="#1C276C"/>
<path d="M0 256.411L206 270.106L411 269.58L617 280.114L823 298.549L1029 262.732L1234 295.916L1440 240.083V337.527H1234H1029H823H617H411H206H0V256.411Z" fill="#1B204E"/>
</g>
<defs>
<clipPath id="clip0_31_80">
<rect width="1440" height="337" fill="white"/>
</clipPath>
</defs>
</svg>
