<svg width="1439" height="278" viewBox="0 0 1439 278" fill="none" xmlns="http://www.w3.org/2000/svg">
<path d="M-1 220.22L205 251.68L410 176.66L616 174.24L822 166.98L1028 227.48L1233 231.11L1439 272.25V0H1233H1028H822H616H410H205H-1V220.22Z" fill="#871400"/>
<path d="M-1 165.77L205 203.28L410 151.25L616 133.1L822 192.39L1028 157.3L1233 203.28L1439 121V0H1233H1028H822H616H410H205H-1V165.77Z" fill="#A81D17"/>
<path d="M-1 84.7L205 81.07L410 106.48L616 112.53L822 76.23L1028 47.19L1233 91.96L1439 70.18V0H1233H1028H822H616H410H205H-1V84.7Z" fill="#CB272D"/>
</svg>
